<?xml version="1.0" standalone="no"?>
<!DOCTYPE svg PUBLIC "-//W3C//DTD SVG 20010904//EN"
 "http://www.w3.org/TR/2001/REC-SVG-20010904/DTD/svg10.dtd">
<svg version="1.0" xmlns="http://www.w3.org/2000/svg"
 width="700.000000pt" height="700.000000pt" viewBox="0 0 700.000000 700.000000"
 preserveAspectRatio="xMidYMid meet">
<metadata>
Created by potrace 1.11, written by Peter Selinger 2001-2013
</metadata>
<g transform="translate(0.000000,700.000000) scale(0.100000,-0.100000)"
fill="#000000" stroke="none">
<path d="M3454 6968 c-17 -18 -131 -198 -179 -279 -5 -10 -28 -48 -50 -85 -52
-88 -62 -105 -252 -437 -150 -262 -355 -631 -468 -842 -26 -49 -60 -112 -75
-140 -15 -27 -52 -97 -83 -155 -30 -58 -81 -152 -112 -210 -116 -218 -547
-1093 -635 -1290 -50 -113 -101 -225 -112 -250 -11 -25 -26 -61 -33 -80 -7
-20 -29 -69 -50 -110 -20 -40 -52 -120 -71 -177 -33 -100 -38 -120 -50 -192
-3 -18 -8 -43 -10 -55 -16 -83 -21 -256 -10 -396 9 -122 16 -165 51 -322 74
-332 274 -721 539 -1048 70 -86 277 -297 350 -355 27 -22 63 -52 80 -66 56
-46 169 -124 272 -187 96 -59 302 -162 324 -162 5 0 18 -4 28 -10 52 -29 272
-84 390 -97 84 -10 351 -9 415 0 110 17 215 42 322 75 180 57 474 217 640 349
6 5 30 24 55 43 73 58 129 109 246 225 258 258 481 595 607 920 42 109 49 127
53 140 1 6 14 51 28 100 85 298 101 572 50 850 -15 82 -38 174 -53 210 -45
107 -103 242 -160 370 -5 11 -16 36 -24 55 -29 66 -124 275 -173 380 -57 123
-449 907 -530 1060 -30 58 -83 157 -116 220 -34 63 -73 138 -88 165 -15 28
-49 91 -75 140 -27 50 -69 128 -95 175 -26 47 -69 126 -95 175 -26 50 -51 95
-56 100 -4 6 -22 37 -40 70 -52 96 -416 733 -449 785 -5 8 -55 89 -111 180
-56 91 -102 166 -103 167 0 0 -17 4 -36 8 -29 5 -39 2 -56 -17z"/>
</g>
</svg>
